<svg width="20" height="18" viewBox="0 0 20 18" fill="none" xmlns="http://www.w3.org/2000/svg">
<path d="M9.64497 17.9107L9.63844 17.9071L9.61579 17.8949C9.5965 17.8844 9.56891 17.8693 9.53358 17.8496C9.46292 17.8101 9.36124 17.7524 9.23296 17.6769C8.9765 17.5261 8.61317 17.3039 8.17855 17.015C7.31074 16.4381 6.15122 15.5901 4.9886 14.5063C2.68781 12.3615 0.25 9.1751 0.25 5.25C0.25 2.32194 2.7136 0 5.6875 0C7.43638 0 9.00232 0.799088 10 2.0516C10.9977 0.799088 12.5636 0 14.3125 0C17.2864 0 19.75 2.32194 19.75 5.25C19.75 9.1751 17.3122 12.3615 15.0114 14.5063C13.8488 15.5901 12.6893 16.4381 11.8215 17.015C11.3868 17.3039 11.0235 17.5261 10.767 17.6769C10.6388 17.7524 10.5371 17.8101 10.4664 17.8496C10.4311 17.8693 10.4035 17.8844 10.3842 17.8949L10.3616 17.9071L10.355 17.9107L10.3523 17.9121C10.1323 18.0289 9.86769 18.0289 9.64773 17.9121L9.64497 17.9107Z" fill="#FF0000"/>
</svg>
